<?xml version="1.0" encoding="UTF-8" standalone="no"?>
<!-- Created with Inkscape (http://www.inkscape.org/) -->

<svg
   width="48"
   height="48"
   viewBox="0 0 12.7 12.7"
   version="1.1"
   id="svg1"
   inkscape:version="1.4 (e7c3feb100, 2024-10-09)"
   sodipodi:docname="disertare-original.svg"
   xmlns:inkscape="http://www.inkscape.org/namespaces/inkscape"
   xmlns:sodipodi="http://sodipodi.sourceforge.net/DTD/sodipodi-0.dtd"
   xmlns="http://www.w3.org/2000/svg"
   xmlns:svg="http://www.w3.org/2000/svg">
  <sodipodi:namedview
     id="namedview1"
     pagecolor="#ffffff"
     bordercolor="#000000"
     borderopacity="0.25"
     inkscape:showpageshadow="2"
     inkscape:pageopacity="0.0"
     inkscape:pagecheckerboard="0"
     inkscape:deskcolor="#d1d1d1"
     inkscape:document-units="mm"
     inkscape:zoom="6.6926984"
     inkscape:cx="24.3549"
     inkscape:cy="21.814818"
     inkscape:window-width="1366"
     inkscape:window-height="761"
     inkscape:window-x="0"
     inkscape:window-y="0"
     inkscape:window-maximized="1"
     inkscape:current-layer="layer1" />
  <defs
     id="defs1" />
  <g
     inkscape:label="Capa 1"
     inkscape:groupmode="layer"
     id="layer1">
    <path
       id="path38-6"
       style="fill:#000080;stroke-width:0.0272479"
       d="M 5.3040989,7.5320464 5.2910649,8.1014126 5.2780222,8.670777 5.2910649,8.1014126 Z M 6.7385011,2.9250657 C 6.6116575,2.9968757 6.5477315,3.0555895 6.4845744,3.1582929 6.4654254,3.1894339 6.377512,3.3870514 6.3708633,3.4139028 c -0.014796,0.059757 -0.02251,0.1907619 -0.015583,0.2646073 0.00445,0.046824 0.044234,0.211334 0.058602,0.2419801 L 6.534527,4.1214641 c 0.042113,0.058507 0.1418756,0.1406858 0.2246274,0.1850434 0.1229034,0.06588 0.1829722,0.079795 0.3444629,0.079791 0.1680814,-4e-6 0.2152624,-0.011895 0.335358,-0.084498 0.054377,-0.032872 0.1929265,-0.1522966 0.2267851,-0.1954754 0.03149,-0.040161 0.1128936,-0.1938489 0.127562,-0.2408408 0.010999,-0.035238 0.040539,-0.215815 0.040539,-0.2478241 0,-0.03201 -0.029532,-0.2125867 -0.040539,-0.247824 C 7.7776715,3.3196874 7.6962846,3.1679173 7.6607352,3.1225837 7.6353256,3.0901789 7.4823206,2.9499454 7.4493925,2.9288813 7.3536203,2.8676159 7.2885004,2.8502578 7.1190617,2.8408341 6.9200937,2.8297685 6.8983207,2.8345863 6.7384993,2.9250657 Z M 5.2780188,8.670777 v 0.9679235 l -0.00895,0.9679165 -0.1590704,-0.05637 -0.3595112,-0.09974 -0.4668498,-0.06177 -0.2574573,-0.01841 V 6.275164 2.1800131 l 1.3887615,1.05e-4 c 0.8524975,4.94e-5 1.4793979,0.012204 1.6234825,0.031479 0.051187,0.00684 0.4080537,0.085695 0.4564003,0.1008401 0.056378,0.017657 0.3815622,0.1553332 0.4360881,0.1846255 0.043584,0.023411 0.3448777,0.2232126 0.3781608,0.2507708 l 0.2750925,0.2678123 0.228653,0.3301798 c 0.011777,0.019867 0.2007401,0.4104755 0.2100469,0.4341844 l 0.1548964,0.4700155 0.113481,0.5266632 c 0.006,0.034048 0.07932,0.6451018 0.08301,0.6914346 0.01989,0.2501767 0.02569,0.5999267 0.01557,0.9394525 -0.005,0.1660464 -0.04428,0.7875109 -0.05675,0.8967513 L 9.2378031,7.916394 9.0934368,8.4548876 8.8977538,8.9673191 8.68871,9.3632657 8.4146952,9.726855 c -0.00137,0.00158 -0.3250863,0.324279 -0.3262999,0.325278 l -0.1788696,0.127486 c -0.013753,0 -0.023554,-0.9712788 -0.023639,-2.341512 C 7.8857739,6.2107827 7.8769049,5.4618875 7.8567979,5.3828126 7.8397783,5.3159009 7.783169,5.2202509 7.7193688,5.1506055 7.6425926,5.0668016 7.5679717,5.018563 7.4641242,4.9856095 7.3460059,4.9481266 7.220187,4.9406636 6.8192695,4.9473661 L 6.3211653,4.9556961 6.0696045,4.7266184 C 5.9557091,4.5456498 4.9996032,4.4580342 4.8132483,4.4421277 c 0.2287454,0.1491254 0.3570498,0.4018021 0.4258386,0.6601206 0.019653,0.073802 0.034448,0.1480645 0.04534,0.2205042 0.037894,0.252036 0.028535,0.482007 0.012119,0.5937475 L 5.304076,7.5320687 5.291033,8.1014349 Z M 2.116261,5.7314289 c -7.449e-4,0.2743675 -0.0012,5.3976871 -4.088e-4,5.4187901 l 0.013564,0.387027 0.6028164,0.01795 c 0.2380566,0.0071 0.8044921,0.04412 0.936114,0.06119 l 0.5962823,0.102705 c 0.00376,8.07e-4 0.5163134,0.152426 0.5199953,0.153782 0.068044,0.02496 0.4062277,0.182371 0.459959,0.214085 l 0.2029484,0.119799 0.2868804,-0.01893 0.6389611,-0.06022 0.6780805,-0.09876 0.6259211,-0.140276 0.5346406,-0.171765 c 0.030096,-0.01139 0.5302943,-0.249075 0.5737609,-0.272619 0.1485662,-0.0805 0.4775559,-0.291407 0.5855979,-0.375423 0.07297,-0.05674 0.427901,-0.381114 0.50413,-0.46073 l 0.4215569,-0.483965 0.307795,-0.4569237 0.289539,-0.5600607 c 0.03631,-0.079231 0.222184,-0.5602139 0.247547,-0.640536 0.01015,-0.03215 0.162068,-0.6172064 0.168739,-0.6498418 C 11.322171,7.7605328 11.411283,7.1709475 11.41826,7.105 11.44198,6.8807976 11.45893,6.4833916 11.45894,6.1511376 11.458958,5.8270601 11.44233,5.4283067 11.42035,5.2259191 L 11.34137,4.6428516 11.225193,4.129083 C 11.218693,4.104427 11.031801,3.5398355 11.020724,3.5113039 11.012724,3.4905099 10.774387,2.9608013 10.76651,2.9461342 L 10.501056,2.4995145 10.214892,2.1059363 9.8705591,1.7431725 9.4737381,1.4198548 9.0509175,1.1590798 C 9.0278365,1.146777 8.5825835,0.95224792 8.5545355,0.94221865 8.5328377,0.93446471 8.0818973,0.80488378 8.0645553,0.80142463 L 7.5768074,0.72882393 C 7.4125045,0.71107539 6.2929796,0.69964623 4.7184706,0.69964623 H 2.1302264 Z m 4.2000165,2.3915134 0.01022,-2.7825922 0.069079,0.016938 0.1864437,0.092673 c 0.079368,0.051216 0.1366071,0.1170945 0.1768203,0.203509 l 0.059457,0.1277757 -0.00727,2.2774621 c -0.00659,2.0579431 -0.011503,2.2875851 -0.050948,2.3824971 -0.00599,0.01439 -0.1381269,0.216916 -0.1531221,0.234673 l -0.1989612,0.190016 -0.095697,0.05 z" />
  </g>
</svg>
